<svg xmlns="http://www.w3.org/2000/svg" width="80" height="80" viewBox="0 0 80 80">
  <path id="Path_53" data-name="Path 53" d="M607.747,8392.848a45.437,45.437,0,0,0-9.861-11.771,61.36,61.36,0,0,0-11.3-7.7,9.187,9.187,0,0,0,3.131-2.085,9.353,9.353,0,0,0-6.626-15.979,27.613,27.613,0,0,0-14.03,3.778,45.474,45.474,0,0,0-11.771,9.861,61.315,61.315,0,0,0-7.7,11.3,9.2,9.2,0,0,0-2.085-3.132,9.354,9.354,0,0,0-15.979,6.626,27.614,27.614,0,0,0,3.779,14.031,45.472,45.472,0,0,0,9.861,11.771,61.408,61.408,0,0,0,11.3,7.7,9.183,9.183,0,0,0-3.131,2.085,9.354,9.354,0,0,0,6.626,15.979,27.619,27.619,0,0,0,14.031-3.78,45.467,45.467,0,0,0,11.771-9.861,61.351,61.351,0,0,0,7.7-11.3,9.185,9.185,0,0,0,2.086,3.131,9.354,9.354,0,0,0,15.979-6.626A27.614,27.614,0,0,0,607.747,8392.848Zm-27.518,22.9a19.375,19.375,0,0,1-9.9,2.885,18.284,18.284,0,0,1-5.721-.951,39.944,39.944,0,0,1-13.516-13.667,19.368,19.368,0,0,1-2.885-9.9,18.283,18.283,0,0,1,.951-5.722,39.957,39.957,0,0,1,13.667-13.516,19.372,19.372,0,0,1,9.9-2.885,18.308,18.308,0,0,1,5.721.951,39.935,39.935,0,0,1,13.516,13.667,19.359,19.359,0,0,1,2.886,9.9,18.307,18.307,0,0,1-.951,5.721A39.969,39.969,0,0,1,580.229,8415.749Z" transform="translate(-531.527 -8355.314)" fill="#adcf36"/>
</svg>
