<svg xmlns="http://www.w3.org/2000/svg" width="200" height="92.258" viewBox="0 0 200 92.258">
  <g id="Delightful_Fragrance" data-name="Delightful Fragrance" transform="translate(-1620 -8353.871)">
    <g id="Fragrance">
      <path id="Path_54" data-name="Path 54" d="M1620,8404.5h19.244v4.172h-14.893v10.36H1637.4v4.128h-13.053v13.769H1620Z" fill="#adcf36"/>
      <path id="Path_55" data-name="Path 55" d="M1648.165,8418.365l.4,5.38-.226-.715a7.742,7.742,0,0,1,2.088-2.9,11.185,11.185,0,0,1,2.869-1.839,6.835,6.835,0,0,1,2.625-.649l-.223,4.128a6.292,6.292,0,0,0-3.7.807,6.959,6.959,0,0,0-2.512,2.511,6.554,6.554,0,0,0-.92,3.366v8.476h-4.128v-18.568Z" fill="#adcf36"/>
      <path id="Path_56" data-name="Path 56" d="M1668.577,8437.383a10.039,10.039,0,0,1-4.734-1.121,8.2,8.2,0,0,1-3.362-3.3,11.881,11.881,0,0,1,.066-10.677,9.021,9.021,0,0,1,3.478-3.475,9.616,9.616,0,0,1,4.775-1.213,7.8,7.8,0,0,1,4.4,1.19,8.577,8.577,0,0,1,2.734,2.8l-.271.716.406-3.945h3.858v18.568h-4.172v-4.844l.449,1.077a4.554,4.554,0,0,1-.785,1.142,9.129,9.129,0,0,1-1.617,1.413,9.625,9.625,0,0,1-2.307,1.19A8.545,8.545,0,0,1,1668.577,8437.383Zm1.121-3.453a6.592,6.592,0,0,0,2.825-.584,5.628,5.628,0,0,0,2.088-1.639,6.044,6.044,0,0,0,1.143-2.534v-3.632a5.7,5.7,0,0,0-1.256-2.354,6.246,6.246,0,0,0-2.154-1.569,6.7,6.7,0,0,0-2.781-.562,5.96,5.96,0,0,0-3.048.808,6.071,6.071,0,0,0-2.223,2.245,6.614,6.614,0,0,0-.829,3.361,6.434,6.434,0,0,0,.854,3.274,6.28,6.28,0,0,0,2.286,2.332A5.947,5.947,0,0,0,1669.7,8433.93Z" fill="#adcf36"/>
      <path id="Path_57" data-name="Path 57" d="M1696.075,8446.129a12.713,12.713,0,0,1-3.636-.471,10.585,10.585,0,0,1-2.847-1.322,19.845,19.845,0,0,1-2.446-1.931l2.424-2.825a12.884,12.884,0,0,0,3,2.154,7.543,7.543,0,0,0,3.409.763,8.251,8.251,0,0,0,3.567-.7,5.121,5.121,0,0,0,2.219-1.928,5.33,5.33,0,0,0,.763-2.847l.044-5.026.361.81a7.1,7.1,0,0,1-2.917,3.249,9.415,9.415,0,0,1-5.114,1.325,8.836,8.836,0,0,1-4.686-1.3,9.8,9.8,0,0,1-4.687-8.523,9.7,9.7,0,0,1,1.347-5.136,10.089,10.089,0,0,1,3.54-3.521,9.275,9.275,0,0,1,4.8-1.3,10.036,10.036,0,0,1,4.508,1.009,6.923,6.923,0,0,1,2.983,2.58l-.223.763.449-3.588h3.811v18.7a8.419,8.419,0,0,1-1.3,4.573,9.135,9.135,0,0,1-3.679,3.274A12.416,12.416,0,0,1,1696.075,8446.129Zm-6.37-18.66a6.47,6.47,0,0,0,.85,3.274,6.309,6.309,0,0,0,5.563,3.187,7.148,7.148,0,0,0,2.983-.605,6.342,6.342,0,0,0,2.219-1.661,6.022,6.022,0,0,0,1.256-2.446v-3.676a5.841,5.841,0,0,0-1.344-2.354,6.563,6.563,0,0,0-2.245-1.569,7.121,7.121,0,0,0-2.869-.562,6.606,6.606,0,0,0-3.252.808,6.047,6.047,0,0,0-2.311,2.267A6.517,6.517,0,0,0,1689.7,8427.469Z" fill="#adcf36"/>
      <path id="Path_58" data-name="Path 58" d="M1717.691,8418.365l.4,5.38-.226-.715a7.742,7.742,0,0,1,2.088-2.9,11.185,11.185,0,0,1,2.869-1.839,6.835,6.835,0,0,1,2.625-.649l-.223,4.128a6.292,6.292,0,0,0-3.7.807,6.966,6.966,0,0,0-2.512,2.511,6.554,6.554,0,0,0-.92,3.366v8.476h-4.128v-18.568Z" fill="#adcf36"/>
      <path id="Path_59" data-name="Path 59" d="M1738.1,8437.383a10.043,10.043,0,0,1-4.735-1.121,8.208,8.208,0,0,1-3.362-3.3,11.89,11.89,0,0,1,.066-10.677,9.017,9.017,0,0,1,3.479-3.475,9.61,9.61,0,0,1,4.774-1.213,7.8,7.8,0,0,1,4.4,1.19,8.566,8.566,0,0,1,2.734,2.8l-.27.716.4-3.945h3.858v18.568h-4.172v-4.844l.449,1.077a4.5,4.5,0,0,1-.785,1.142,9.12,9.12,0,0,1-1.617,1.413,9.606,9.606,0,0,1-2.307,1.19A8.539,8.539,0,0,1,1738.1,8437.383Zm1.12-3.453a6.6,6.6,0,0,0,2.826-.584,5.637,5.637,0,0,0,2.088-1.639,6.043,6.043,0,0,0,1.142-2.534v-3.632a5.7,5.7,0,0,0-1.256-2.354,6.233,6.233,0,0,0-2.153-1.569,6.7,6.7,0,0,0-2.782-.562,5.963,5.963,0,0,0-3.048.808,6.071,6.071,0,0,0-2.223,2.245,6.613,6.613,0,0,0-.828,3.361,6.424,6.424,0,0,0,.854,3.274,6.285,6.285,0,0,0,2.285,2.332A5.948,5.948,0,0,0,1739.22,8433.93Z" fill="#adcf36"/>
      <path id="Path_60" data-name="Path 60" d="M1760.392,8418.365l.361,4.529-.182-.719a7.139,7.139,0,0,1,2.916-3.3,8.773,8.773,0,0,1,4.665-1.233,6.137,6.137,0,0,1,4.329,1.548,5.343,5.343,0,0,1,1.727,4.015v13.725h-4.216v-12.247a3.856,3.856,0,0,0-.876-2.488,3.215,3.215,0,0,0-2.577-.964,5.012,5.012,0,0,0-2.917.9,6.036,6.036,0,0,0-2.04,2.468,8.435,8.435,0,0,0-.741,3.633v8.7h-4.173v-18.568Z" fill="#adcf36"/>
      <path id="Path_61" data-name="Path 61" d="M1796.544,8435.229a9.832,9.832,0,0,1-3.005,1.57,10.963,10.963,0,0,1-3.5.584,11.255,11.255,0,0,1-5.337-1.212,8.831,8.831,0,0,1-3.566-3.388,9.96,9.96,0,0,1-1.278-5.135,9.565,9.565,0,0,1,1.369-5.158,9.386,9.386,0,0,1,3.588-3.384,9.973,9.973,0,0,1,4.775-1.19,11.929,11.929,0,0,1,4.015.628,9.452,9.452,0,0,1,3.03,1.705l-2.066,2.69a8.835,8.835,0,0,0-1.971-1.121,6.758,6.758,0,0,0-2.647-.493,5.646,5.646,0,0,0-2.982.829,5.92,5.92,0,0,0-2.154,2.267,6.6,6.6,0,0,0-.784,3.228,6.4,6.4,0,0,0,.806,3.163,5.857,5.857,0,0,0,2.242,2.285,6.394,6.394,0,0,0,3.274.833,6.58,6.58,0,0,0,2.223-.361,6.4,6.4,0,0,0,1.814-.985Z" fill="#adcf36"/>
      <path id="Path_62" data-name="Path 62" d="M1810.539,8437.383a11.08,11.08,0,0,1-5.476-1.277,8.928,8.928,0,0,1-3.519-3.5,10.274,10.274,0,0,1-1.233-5.09,9.253,9.253,0,0,1,1.39-4.979,10.42,10.42,0,0,1,3.724-3.588,10.2,10.2,0,0,1,5.2-1.348,8.829,8.829,0,0,1,6.1,2.154,10.836,10.836,0,0,1,3.274,5.92l-15.294,5.381-.986-2.468,12.557-4.573-.9.584a6.261,6.261,0,0,0-1.795-2.581,4.8,4.8,0,0,0-3.275-1.1,5.68,5.68,0,0,0-3.048.832,5.788,5.788,0,0,0-2.11,2.264,7.467,7.467,0,0,0,.044,6.661,5.985,5.985,0,0,0,2.223,2.289,6.226,6.226,0,0,0,3.2.829,6.4,6.4,0,0,0,2.355-.449,9.391,9.391,0,0,0,2.131-1.169l1.928,3.1a12.746,12.746,0,0,1-3.118,1.525A10.469,10.469,0,0,1,1810.539,8437.383Z" fill="#adcf36"/>
    </g>
    <g id="Delightful">
      <path id="Path_63" data-name="Path 63" d="M1620,8390.036V8356.3h9.194a21.214,21.214,0,0,1,8.514,1.538,15.416,15.416,0,0,1,5.67,4.061,16.49,16.49,0,0,1,3.152,5.577,19.446,19.446,0,0,1,1,6.088,16.957,16.957,0,0,1-1.33,6.862,15.306,15.306,0,0,1-3.664,5.18,16.453,16.453,0,0,1-5.344,3.289,17.734,17.734,0,0,1-6.368,1.144Zm4.527-4.341h5.411a15.314,15.314,0,0,0,5.157-.839,11.983,11.983,0,0,0,4.106-2.428,10.88,10.88,0,0,0,2.73-3.9,13.324,13.324,0,0,0,.98-5.248,13.663,13.663,0,0,0-1.025-5.484,11.239,11.239,0,0,0-2.8-3.945,12.3,12.3,0,0,0-4.014-2.4,13.6,13.6,0,0,0-4.713-.816h-5.833Z" fill="#adcf36"/>
      <path id="Path_64" data-name="Path 64" d="M1663.027,8390.5a11.53,11.53,0,0,1-5.7-1.329,9.284,9.284,0,0,1-3.661-3.642,10.687,10.687,0,0,1-1.283-5.294,9.624,9.624,0,0,1,1.447-5.181,10.822,10.822,0,0,1,3.873-3.732,10.623,10.623,0,0,1,5.412-1.4,9.181,9.181,0,0,1,6.346,2.24,11.278,11.278,0,0,1,3.406,6.16l-15.912,5.6-1.025-2.568L1669,8376.6l-.93.608a6.515,6.515,0,0,0-1.868-2.686,4.992,4.992,0,0,0-3.407-1.143,5.891,5.891,0,0,0-3.171.866,6.014,6.014,0,0,0-2.195,2.354,7.769,7.769,0,0,0,.046,6.932,6.221,6.221,0,0,0,2.313,2.381,6.469,6.469,0,0,0,3.334.861,6.644,6.644,0,0,0,2.449-.467,9.744,9.744,0,0,0,2.218-1.216l2.005,3.221a13.222,13.222,0,0,1-3.243,1.587A10.879,10.879,0,0,1,1663.027,8390.5Z" fill="#adcf36"/>
      <path id="Path_65" data-name="Path 65" d="M1678.327,8353.917h4.341v36.119h-4.341Z" fill="#adcf36"/>
      <path id="Path_66" data-name="Path 66" d="M1689.853,8363.718a2.188,2.188,0,0,1,.816-1.727,2.7,2.7,0,0,1,1.8-.7,2.523,2.523,0,0,1,1.75.7,2.24,2.24,0,0,1,.771,1.727,2.216,2.216,0,0,1-.771,1.747,2.574,2.574,0,0,1-1.75.68,2.705,2.705,0,0,1-1.8-.7A2.192,2.192,0,0,1,1689.853,8363.718Zm.326,7h4.341v19.319h-4.341Z" fill="#adcf36"/>
      <path id="Path_67" data-name="Path 67" d="M1711.324,8399.6a13.19,13.19,0,0,1-3.782-.489,11.04,11.04,0,0,1-2.962-1.375,20.69,20.69,0,0,1-2.544-2.01l2.521-2.938a13.384,13.384,0,0,0,3.126,2.241,7.855,7.855,0,0,0,3.546.793,8.569,8.569,0,0,0,3.711-.726,5.323,5.323,0,0,0,2.309-2,5.536,5.536,0,0,0,.793-2.962l.046-5.229.376.843a7.39,7.39,0,0,1-3.034,3.38,9.8,9.8,0,0,1-5.321,1.379,9.2,9.2,0,0,1-4.876-1.352,10.2,10.2,0,0,1-4.876-8.867,10.085,10.085,0,0,1,1.4-5.344,10.5,10.5,0,0,1,3.684-3.664,9.654,9.654,0,0,1,4.994-1.353,10.458,10.458,0,0,1,4.69,1.048,7.206,7.206,0,0,1,3.1,2.686l-.231.793.467-3.733h3.965v19.459a8.757,8.757,0,0,1-1.352,4.759,9.508,9.508,0,0,1-3.828,3.406A12.928,12.928,0,0,1,1711.324,8399.6Zm-6.626-19.412a6.724,6.724,0,0,0,.884,3.405,6.555,6.555,0,0,0,5.788,3.315,7.41,7.41,0,0,0,3.1-.63,6.576,6.576,0,0,0,2.309-1.729,6.262,6.262,0,0,0,1.306-2.544v-3.825a6.048,6.048,0,0,0-1.4-2.448,6.8,6.8,0,0,0-2.335-1.634,7.419,7.419,0,0,0-2.985-.585,6.865,6.865,0,0,0-3.384.841,6.289,6.289,0,0,0-2.4,2.357A6.779,6.779,0,0,0,1704.7,8380.189Z" fill="#adcf36"/>
      <path id="Path_68" data-name="Path 68" d="M1729.94,8390.036v-36.119h4.25V8375.2l-.095-.79a8.014,8.014,0,0,1,3.011-3.175,8.88,8.88,0,0,1,4.781-1.262,6.388,6.388,0,0,1,4.5,1.61,5.566,5.566,0,0,1,1.8,4.178v14.279H1743.8v-12.741a4.017,4.017,0,0,0-.911-2.59,3.349,3.349,0,0,0-2.681-1,5.129,5.129,0,0,0-3.034.957,6.445,6.445,0,0,0-2.123,2.59,8.66,8.66,0,0,0-.771,3.733v9.054Z" fill="#adcf36"/>
      <path id="Path_69" data-name="Path 69" d="M1757.613,8362.222h4.341v8.587h5.316v3.406h-5.316v15.821h-4.341v-15.821h-3.547v-3.406h3.547Z" fill="#adcf36"/>
      <path id="Path_70" data-name="Path 70" d="M1774.083,8390.036v-15.445h-3.311v-3.874h3.311v-8.168q0-4.2,1.892-6.437a6.874,6.874,0,0,1,5.574-2.241,9.369,9.369,0,0,1,2.173.281,5.647,5.647,0,0,1,2.073.931l-1.819,3.129a2.316,2.316,0,0,0-.934-.585,3.319,3.319,0,0,0-1.025-.163,3.212,3.212,0,0,0-2.659,1.166,6.456,6.456,0,0,0-.934,3.968v8.119h6.114v3.874h-6.114v15.445Z" fill="#adcf36"/>
      <path id="Path_71" data-name="Path 71" d="M1796.3,8390.784a6.041,6.041,0,0,1-4.317-1.61,5.807,5.807,0,0,1-1.8-4.178v-14.279h4.341v12.738a4.271,4.271,0,0,0,.911,2.567,3.305,3.305,0,0,0,2.59,1.028,4.761,4.761,0,0,0,2.917-.957,6.957,6.957,0,0,0,2.077-2.612,8.617,8.617,0,0,0,.79-3.761v-9h4.341v19.319h-3.965l-.376-4.759.236.84a6.752,6.752,0,0,1-1.706,2.4,8.6,8.6,0,0,1-2.681,1.654A9.115,9.115,0,0,1,1796.3,8390.784Z" fill="#adcf36"/>
      <path id="Path_72" data-name="Path 72" d="M1815.659,8353.917H1820v36.119h-4.341Z" fill="#adcf36"/>
    </g>
  </g>
</svg>
