<svg xmlns="http://www.w3.org/2000/svg" width="200" height="100.27" viewBox="0 0 200 100.27">
  <g id="PFHW_Bubble" data-name="PFHW Bubble" transform="translate(-99.73 -8349.865)">
    <g id="PFHW">
      <g id="Hand_Wash" data-name="Hand Wash">
        <path id="Path_73" data-name="Path 73" d="M172.886,8428.972v20.239H170.2v-8.874h-10.61v8.874h-2.716v-20.239h2.716v8.79H170.2v-8.79Z" fill="#adcf36"/>
        <path id="Path_74" data-name="Path 74" d="M182.881,8449.493a6.263,6.263,0,0,1-2.954-.7,5.125,5.125,0,0,1-2.1-2.059,7.406,7.406,0,0,1,.041-6.662,5.64,5.64,0,0,1,2.17-2.171,6.035,6.035,0,0,1,2.982-.754,4.861,4.861,0,0,1,2.743.739,5.339,5.339,0,0,1,1.707,1.75l-.167.448.252-2.463h2.407v11.589h-2.6v-3.024l.281.674a2.788,2.788,0,0,1-.49.714,5.739,5.739,0,0,1-1.008.883,6,6,0,0,1-1.442.74A5.307,5.307,0,0,1,182.881,8449.493Zm.7-2.157a4.132,4.132,0,0,0,1.764-.364,3.491,3.491,0,0,0,1.3-1.021,3.773,3.773,0,0,0,.713-1.581v-2.27a3.546,3.546,0,0,0-.783-1.468,3.913,3.913,0,0,0-1.344-.98,4.207,4.207,0,0,0-1.736-.351,3.748,3.748,0,0,0-3.289,1.9,4.122,4.122,0,0,0-.518,2.1,4.02,4.02,0,0,0,.532,2.043,3.931,3.931,0,0,0,1.428,1.456A3.718,3.718,0,0,0,183.58,8447.336Z" fill="#adcf36"/>
        <path id="Path_75" data-name="Path 75" d="M196.793,8437.622l.224,2.827L196.9,8440a4.458,4.458,0,0,1,1.821-2.056,5.457,5.457,0,0,1,2.912-.771,3.84,3.84,0,0,1,2.7.965,3.339,3.339,0,0,1,1.077,2.508v8.564h-2.63v-7.641a2.416,2.416,0,0,0-.547-1.555,2.011,2.011,0,0,0-1.61-.6,3.127,3.127,0,0,0-1.818.56,3.764,3.764,0,0,0-1.274,1.54,5.253,5.253,0,0,0-.462,2.27v5.429h-2.6v-11.589Z" fill="#adcf36"/>
        <path id="Path_76" data-name="Path 76" d="M214.655,8449.493a5.565,5.565,0,0,1-2.9-.771,5.445,5.445,0,0,1-2.059-2.185,6.812,6.812,0,0,1-.756-3.261,6.474,6.474,0,0,1,.8-3.3,5.408,5.408,0,0,1,2.17-2.1,6.452,6.452,0,0,1,3.079-.727,6.052,6.052,0,0,1,2.618.587,4.7,4.7,0,0,1,1.945,1.624l-.112.924v-12.738h2.577v21.667h-2.606v-2.883l.282.729a6.353,6.353,0,0,1-2.1,1.749A6.163,6.163,0,0,1,214.655,8449.493Zm.812-2.212a4.331,4.331,0,0,0,1.847-.379,3.684,3.684,0,0,0,1.345-1.05,4.09,4.09,0,0,0,.754-1.6v-2.184a3.487,3.487,0,0,0-.8-1.471,4.37,4.37,0,0,0-1.371-1.007,4.124,4.124,0,0,0-1.778-.379,3.776,3.776,0,0,0-1.945.519,3.925,3.925,0,0,0-1.947,3.485,3.991,3.991,0,0,0,.533,2.058,4.073,4.073,0,0,0,1.428,1.456A3.649,3.649,0,0,0,215.467,8447.281Z" fill="#adcf36"/>
        <path id="Path_77" data-name="Path 77" d="M234.279,8429.084h3.136l5.486,15.452-.475-.2,4-10.357,1.259,3.667-5.346,12.484Zm9.715,0h2.714l5.936,15.228-.561-.111,5.236-15.116H260.2l-7.95,21.024Z" fill="#adcf36"/>
        <path id="Path_78" data-name="Path 78" d="M265.8,8449.493a6.258,6.258,0,0,1-2.952-.7,5.133,5.133,0,0,1-2.1-2.059,7.415,7.415,0,0,1,.043-6.662,5.611,5.611,0,0,1,2.169-2.171,6.034,6.034,0,0,1,2.981-.754,4.862,4.862,0,0,1,2.744.739,5.359,5.359,0,0,1,1.707,1.75l-.168.448.253-2.463h2.407v11.589h-2.6v-3.024l.28.674a2.806,2.806,0,0,1-.489.714,5.75,5.75,0,0,1-1.009.883,6.013,6.013,0,0,1-1.441.74A5.319,5.319,0,0,1,265.8,8449.493Zm.7-2.157a4.14,4.14,0,0,0,1.765-.364,3.5,3.5,0,0,0,1.3-1.021,3.775,3.775,0,0,0,.714-1.581v-2.27a3.546,3.546,0,0,0-.783-1.468,3.923,3.923,0,0,0-1.344-.98,4.217,4.217,0,0,0-1.736-.351,3.745,3.745,0,0,0-3.289,1.9,4.112,4.112,0,0,0-.518,2.1,4,4,0,0,0,.532,2.043,3.928,3.928,0,0,0,1.427,1.456A3.718,3.718,0,0,0,266.5,8447.336Z" fill="#adcf36"/>
        <path id="Path_79" data-name="Path 79" d="M280.638,8449.435a6.809,6.809,0,0,1-2.393-.433,4.616,4.616,0,0,1-1.918-1.3l1.091-1.513a5.34,5.34,0,0,0,1.5,1.051,3.665,3.665,0,0,0,2.562.211,1.624,1.624,0,0,0,.769-.462,1.424,1.424,0,0,0-.112-1.862,3.085,3.085,0,0,0-1.036-.588c-.42-.149-.862-.288-1.329-.419a4.988,4.988,0,0,1-2.184-1.317,2.947,2.947,0,0,1-.756-2.042,3.382,3.382,0,0,1,.462-1.722,3.5,3.5,0,0,1,1.373-1.3,4.591,4.591,0,0,1,2.252-.5,7.254,7.254,0,0,1,2.156.294,5.438,5.438,0,0,1,1.792.965l-1.036,1.624a3.069,3.069,0,0,0-1.2-.783,4.44,4.44,0,0,0-1.26-.281,2.178,2.178,0,0,0-.911.141,1.831,1.831,0,0,0-.713.477,1.047,1.047,0,0,0-.28.728,1.243,1.243,0,0,0,.392.952,2.766,2.766,0,0,0,1.022.574c.42.139.835.284,1.246.433a6.144,6.144,0,0,1,1.539.672,3.482,3.482,0,0,1,1.078,1.035,2.744,2.744,0,0,1,.406,1.54,3.893,3.893,0,0,1-.49,1.919,3.485,3.485,0,0,1-1.484,1.4A5.482,5.482,0,0,1,280.638,8449.435Z" fill="#adcf36"/>
        <path id="Path_80" data-name="Path 80" d="M288.784,8449.211v-21.667h2.548v12.766l-.056-.476a4.816,4.816,0,0,1,1.806-1.9,5.313,5.313,0,0,1,2.869-.756,3.84,3.84,0,0,1,2.7.965,3.343,3.343,0,0,1,1.078,2.508v8.564H297.1v-7.641a2.4,2.4,0,0,0-.546-1.555,2.014,2.014,0,0,0-1.61-.6,3.07,3.07,0,0,0-1.819.574,3.89,3.89,0,0,0-1.274,1.554,5.2,5.2,0,0,0-.461,2.241v5.429Z" fill="#adcf36"/>
      </g>
      <g id="Foaming">
        <path id="Path_81" data-name="Path 81" d="M99.73,8388.912h18.148v3.934H103.833v9.771h12.31v3.893h-12.31V8419.5h-4.1Z" fill="#adcf36"/>
        <path id="Path_82" data-name="Path 82" d="M122.108,8404.225a15.05,15.05,0,0,1,1.205-5.985,16.191,16.191,0,0,1,8.334-8.417,15.272,15.272,0,0,1,12.1,0,16.391,16.391,0,0,1,4.991,3.426,16.109,16.109,0,0,1,3.406,4.991,14.811,14.811,0,0,1,1.227,5.985,15.163,15.163,0,0,1-1.227,6.092,15.523,15.523,0,0,1-3.406,4.971,16.154,16.154,0,0,1-4.991,3.341,15.143,15.143,0,0,1-6.028,1.206,15.469,15.469,0,0,1-6.07-1.184,15.762,15.762,0,0,1-4.971-3.3,15.178,15.178,0,0,1-3.363-4.948A15.637,15.637,0,0,1,122.108,8404.225Zm4.23.043a11.428,11.428,0,0,0,.888,4.506,11.925,11.925,0,0,0,2.454,3.7,11.425,11.425,0,0,0,3.638,2.518,11.134,11.134,0,0,0,12.521-2.518,12.333,12.333,0,0,0,2.411-3.7,11.535,11.535,0,0,0,.888-4.549,11.829,11.829,0,0,0-3.342-8.291,11.487,11.487,0,0,0-3.637-2.517,10.936,10.936,0,0,0-4.442-.91,10.824,10.824,0,0,0-4.484.932,11.749,11.749,0,0,0-3.638,2.537,11.242,11.242,0,0,0-2.411,3.744A12.222,12.222,0,0,0,126.338,8404.268Z" fill="#adcf36"/>
        <path id="Path_83" data-name="Path 83" d="M155.568,8419.5l13.368-31.853h.254l13.324,31.853h-4.7l-9.983-25.422,2.919-1.9L159.587,8419.5Zm7.826-11.59h11.379l1.354,3.554H162.21Z" fill="#adcf36"/>
        <path id="Path_84" data-name="Path 84" d="M188.268,8419.5v-31.556h.042l16.031,22.757-1.733-.337,15.99-22.42h.086V8419.5h-4.063v-22.249l.254,2.072-11.548,16.329h-.085l-11.717-16.329.719-1.9V8419.5Z" fill="#adcf36"/>
        <path id="Path_85" data-name="Path 85" d="M227.481,8388.912h4.1V8419.5h-4.1Z" fill="#adcf36"/>
        <path id="Path_86" data-name="Path 86" d="M266.864,8420.469l-23.648-23.984,1.185.3.085,22.715h-4.1v-31.514h.21l23.394,24.069-.973-.212-.084-22.927h4.061v31.557Z" fill="#adcf36"/>
        <path id="Path_87" data-name="Path 87" d="M299.73,8416.874a7.571,7.571,0,0,1-1.776,1.078,19.664,19.664,0,0,1-2.517.951,22.91,22.91,0,0,1-2.834.678,15.983,15.983,0,0,1-2.728.253,18.178,18.178,0,0,1-6.621-1.141,14.874,14.874,0,0,1-5.034-3.174,13.881,13.881,0,0,1-3.214-4.779,15.64,15.64,0,0,1-1.122-5.965,17.752,17.752,0,0,1,1.249-6.832,14.619,14.619,0,0,1,8.438-8.291,16.735,16.735,0,0,1,6.008-1.079,18.444,18.444,0,0,1,4.949.635,18.037,18.037,0,0,1,4.018,1.608l-1.4,3.764a10.834,10.834,0,0,0-2.093-.93,22.122,22.122,0,0,0-2.56-.7,11.965,11.965,0,0,0-2.452-.274,13.866,13.866,0,0,0-4.908.825,10.307,10.307,0,0,0-6.176,6.091,13.39,13.39,0,0,0-.847,4.886,11.952,11.952,0,0,0,.847,4.568,10.224,10.224,0,0,0,2.411,3.574,10.9,10.9,0,0,0,3.744,2.328,13.455,13.455,0,0,0,4.8.824,15.077,15.077,0,0,0,3.089-.318,9.565,9.565,0,0,0,2.623-.909v-6.091h-6.092v-3.934H299.73Z" fill="#adcf36"/>
      </g>
      <g id="Premium">
        <path id="Path_88" data-name="Path 88" d="M107.107,8349.865a11.993,11.993,0,0,1,5.159,1.013,7.559,7.559,0,0,1,3.306,2.923,8.723,8.723,0,0,1,1.165,4.624,10.784,10.784,0,0,1-.5,3.23,8.142,8.142,0,0,1-1.587,2.866,7.7,7.7,0,0,1-2.847,2.045,10.715,10.715,0,0,1-4.28.764h-4.089V8377.5H99.73v-27.631Zm.381,13.911a6.058,6.058,0,0,0,2.714-.535,4.63,4.63,0,0,0,1.682-1.357,5.462,5.462,0,0,0,.878-1.739,5.943,5.943,0,0,0,.268-1.643,6.105,6.105,0,0,0-.268-1.739,4.532,4.532,0,0,0-.9-1.644,4.818,4.818,0,0,0-1.644-1.223,5.852,5.852,0,0,0-2.5-.478h-4.28v10.357Z" fill="#adcf36"/>
        <path id="Path_89" data-name="Path 89" d="M124.763,8361.674l.344,4.586-.191-.61a6.6,6.6,0,0,1,1.777-2.466,9.487,9.487,0,0,1,2.446-1.567,5.776,5.776,0,0,1,2.236-.555l-.192,3.517a5.378,5.378,0,0,0-3.153.688,5.939,5.939,0,0,0-2.14,2.141,5.571,5.571,0,0,0-.783,2.866v7.223h-3.516v-15.822Z" fill="#adcf36"/>
        <path id="Path_90" data-name="Path 90" d="M142.611,8377.878a9.414,9.414,0,0,1-4.663-1.089,7.578,7.578,0,0,1-3-2.98,8.782,8.782,0,0,1-1.051-4.338,7.9,7.9,0,0,1,1.185-4.243,8.907,8.907,0,0,1,3.172-3.057,8.715,8.715,0,0,1,4.433-1.146,7.533,7.533,0,0,1,5.2,1.835,9.257,9.257,0,0,1,2.79,5.045l-13.033,4.586-.84-2.1,10.7-3.9-.764.5a5.283,5.283,0,0,0-1.528-2.2,4.087,4.087,0,0,0-2.791-.937,4.847,4.847,0,0,0-2.6.708,4.939,4.939,0,0,0-1.8,1.931,6.353,6.353,0,0,0,.038,5.675,5.054,5.054,0,0,0,1.892,1.949,5.288,5.288,0,0,0,2.732.707,5.451,5.451,0,0,0,2.007-.382,8.149,8.149,0,0,0,1.815-.994l1.644,2.637a10.937,10.937,0,0,1-2.657,1.3A8.993,8.993,0,0,1,142.611,8377.878Z" fill="#adcf36"/>
        <path id="Path_91" data-name="Path 91" d="M158.318,8361.674l.306,3.554-.153-.306a6.727,6.727,0,0,1,6.229-3.86,6.233,6.233,0,0,1,2.369.422,4.352,4.352,0,0,1,1.7,1.2,3.893,3.893,0,0,1,.86,1.931l-.191.114a6.817,6.817,0,0,1,2.542-2.694,6.54,6.54,0,0,1,3.421-.976,5.067,5.067,0,0,1,3.687,1.319,4.686,4.686,0,0,1,1.4,3.421V8377.5H176.93v-10.433a3.8,3.8,0,0,0-.593-2.046,2.326,2.326,0,0,0-1.93-.9,3.924,3.924,0,0,0-2.464.841,5.707,5.707,0,0,0-1.7,2.159,7.1,7.1,0,0,0-.65,2.847v7.529h-3.554v-10.433a3.616,3.616,0,0,0-.631-2.046,2.445,2.445,0,0,0-1.968-.9,3.9,3.9,0,0,0-2.484.841,5.6,5.6,0,0,0-1.663,2.178A7.008,7.008,0,0,0,158.7,8370v7.491h-3.554v-15.822Z" fill="#adcf36"/>
        <path id="Path_92" data-name="Path 92" d="M186.407,8355.941a1.794,1.794,0,0,1,.669-1.414,2.21,2.21,0,0,1,1.472-.573,2.07,2.07,0,0,1,1.433.573,1.922,1.922,0,0,1,0,2.848,2.113,2.113,0,0,1-1.433.554,2.21,2.21,0,0,1-1.472-.573A1.8,1.8,0,0,1,186.407,8355.941Zm.268,5.732h3.554V8377.5h-3.554Z" fill="#adcf36"/>
        <path id="Path_93" data-name="Path 93" d="M201.389,8378.108a4.939,4.939,0,0,1-3.535-1.319,4.746,4.746,0,0,1-1.472-3.42v-11.7h3.555v10.435a3.5,3.5,0,0,0,.746,2.1,2.7,2.7,0,0,0,2.119.84,3.886,3.886,0,0,0,2.389-.783,5.647,5.647,0,0,0,1.7-2.14,7.023,7.023,0,0,0,.649-3.077v-7.376H211.1V8377.5h-3.247l-.307-3.9.192.688a5.547,5.547,0,0,1-1.395,1.968,7.036,7.036,0,0,1-2.2,1.357A7.442,7.442,0,0,1,201.389,8378.108Z" fill="#adcf36"/>
        <path id="Path_94" data-name="Path 94" d="M220.421,8361.674l.306,3.554-.152-.306a6.727,6.727,0,0,1,6.23-3.86,6.235,6.235,0,0,1,2.368.422,4.359,4.359,0,0,1,1.7,1.2,3.9,3.9,0,0,1,.86,1.931l-.191.114a6.815,6.815,0,0,1,2.541-2.694,6.545,6.545,0,0,1,3.421-.976,5.064,5.064,0,0,1,3.687,1.319,4.686,4.686,0,0,1,1.4,3.421V8377.5h-3.555v-10.433a3.8,3.8,0,0,0-.591-2.046,2.331,2.331,0,0,0-1.931-.9,3.926,3.926,0,0,0-2.464.841,5.72,5.72,0,0,0-1.7,2.159,7.138,7.138,0,0,0-.65,2.847v7.529h-3.554v-10.433a3.615,3.615,0,0,0-.63-2.046,2.445,2.445,0,0,0-1.968-.9,3.907,3.907,0,0,0-2.485.841,5.6,5.6,0,0,0-1.662,2.178A7.008,7.008,0,0,0,220.8,8370v7.491H217.25v-15.822Z" fill="#adcf36"/>
      </g>
    </g>
  </g>
</svg>
