<svg xmlns="http://www.w3.org/2000/svg" width="180" height="93.104" viewBox="0 0 180 93.104">
  <g id="Vitamin_E_-_Aloe_Vera" data-name="Vitamin E - Aloe Vera" transform="translate(-870 -8353.448)">
    <g id="Vitamin_E_-_Aloe_Vera-2" data-name="Vitamin E - Aloe Vera">
      <g id="Aloe">
        <path id="Path_95" data-name="Path 95" d="M870,8445.182l13.126-31.277h.249l13.085,31.277h-4.611l-9.8-24.964,2.866-1.87-10.966,26.834Zm7.685-11.382h11.173l1.33,3.489H876.521Z" fill="#adcf36"/>
        <path id="Path_96" data-name="Path 96" d="M901.153,8413.031h3.863v32.15h-3.863Z" fill="#adcf36"/>
        <path id="Path_97" data-name="Path 97" d="M910.208,8436.417a8.985,8.985,0,0,1,1.225-4.652,8.876,8.876,0,0,1,3.386-3.281,10.662,10.662,0,0,1,9.844,0,8.51,8.51,0,0,1,3.282,3.281,9.364,9.364,0,0,1,1.163,4.652,9.469,9.469,0,0,1-1.163,4.673,8.425,8.425,0,0,1-3.3,3.3,9.954,9.954,0,0,1-4.964,1.2,10.2,10.2,0,0,1-4.881-1.142,8.5,8.5,0,0,1-3.365-3.2A9.278,9.278,0,0,1,910.208,8436.417Zm3.863.042a6.1,6.1,0,0,0,.748,3.011,5.742,5.742,0,0,0,2.014,2.14,5.2,5.2,0,0,0,2.8.79,5.346,5.346,0,0,0,2.887-.79,5.443,5.443,0,0,0,1.973-2.14,6.775,6.775,0,0,0,0-6.022,5.6,5.6,0,0,0-1.973-2.159,5.245,5.245,0,0,0-2.887-.812,5.072,5.072,0,0,0-2.845.831,5.929,5.929,0,0,0-1.994,2.182A6.157,6.157,0,0,0,914.071,8436.459Z" fill="#adcf36"/>
        <path id="Path_98" data-name="Path 98" d="M942.317,8445.6a10.225,10.225,0,0,1-5.068-1.184,8.245,8.245,0,0,1-3.26-3.239,9.531,9.531,0,0,1-1.143-4.715,8.576,8.576,0,0,1,1.288-4.611,9.678,9.678,0,0,1,3.447-3.322,9.474,9.474,0,0,1,4.819-1.246,8.185,8.185,0,0,1,5.649,1.994,10.051,10.051,0,0,1,3.032,5.482l-14.164,4.984-.914-2.284,11.631-4.237-.831.54a5.757,5.757,0,0,0-1.661-2.388,4.44,4.44,0,0,0-3.033-1.019,5.277,5.277,0,0,0-2.825.769,5.391,5.391,0,0,0-1.952,2.1,6.906,6.906,0,0,0,.042,6.168,5.485,5.485,0,0,0,2.056,2.119,5.758,5.758,0,0,0,2.97.769,5.925,5.925,0,0,0,2.18-.415,8.858,8.858,0,0,0,1.974-1.08l1.786,2.865a11.865,11.865,0,0,1-2.887,1.412A9.759,9.759,0,0,1,942.317,8445.6Z" fill="#adcf36"/>
        <path id="Path_99" data-name="Path 99" d="M972.182,8415.15l9.886,24.84-2.285-.457,9.388-24.383h4.693l-13.25,31.4-13.209-31.4Z" fill="#adcf36"/>
        <path id="Path_100" data-name="Path 100" d="M1002.214,8445.6a10.226,10.226,0,0,1-5.068-1.184,8.245,8.245,0,0,1-3.26-3.239,9.531,9.531,0,0,1-1.143-4.715,8.575,8.575,0,0,1,1.288-4.611,9.677,9.677,0,0,1,3.447-3.322,9.474,9.474,0,0,1,4.819-1.246,8.185,8.185,0,0,1,5.649,1.994,10.051,10.051,0,0,1,3.032,5.482l-14.164,4.984-.914-2.284,11.631-4.237-.831.54a5.757,5.757,0,0,0-1.661-2.388,4.44,4.44,0,0,0-3.033-1.019,5.277,5.277,0,0,0-2.825.769,5.391,5.391,0,0,0-1.952,2.1,6.906,6.906,0,0,0,.042,6.168,5.484,5.484,0,0,0,2.056,2.119,5.758,5.758,0,0,0,2.97.769,5.925,5.925,0,0,0,2.18-.415,8.855,8.855,0,0,0,1.974-1.08l1.786,2.865a11.865,11.865,0,0,1-2.887,1.412A9.759,9.759,0,0,1,1002.214,8445.6Z" fill="#adcf36"/>
        <path id="Path_101" data-name="Path 101" d="M1019.285,8427.985l.374,4.984-.207-.665a7.188,7.188,0,0,1,1.931-2.679,10.293,10.293,0,0,1,2.659-1.7,6.274,6.274,0,0,1,2.429-.6l-.207,3.821a5.84,5.84,0,0,0-3.427.748,6.446,6.446,0,0,0-2.326,2.326,6.058,6.058,0,0,0-.852,3.115v7.851h-3.821v-17.2Z" fill="#adcf36"/>
        <path id="Path_102" data-name="Path 102" d="M1038.185,8445.6a9.254,9.254,0,0,1-4.382-1.038,7.6,7.6,0,0,1-3.116-3.053,11,11,0,0,1,.063-9.886,8.352,8.352,0,0,1,3.219-3.22,8.945,8.945,0,0,1,4.423-1.121,7.214,7.214,0,0,1,4.071,1.1,7.927,7.927,0,0,1,2.534,2.6l-.249.665.374-3.655h3.572v17.2h-3.863V8440.7l.415,1a4.129,4.129,0,0,1-.727,1.059,8.5,8.5,0,0,1-1.495,1.308,8.858,8.858,0,0,1-2.139,1.1A7.887,7.887,0,0,1,1038.185,8445.6Zm1.038-3.2a6.151,6.151,0,0,0,2.617-.54,5.229,5.229,0,0,0,1.932-1.517,5.611,5.611,0,0,0,1.059-2.347v-3.365a5.282,5.282,0,0,0-1.163-2.181,5.834,5.834,0,0,0-1.994-1.454,6.272,6.272,0,0,0-2.575-.52,5.562,5.562,0,0,0-4.881,2.825,6.109,6.109,0,0,0-.769,3.115,5.96,5.96,0,0,0,.79,3.033,5.861,5.861,0,0,0,2.118,2.159A5.516,5.516,0,0,0,1039.223,8442.4Z" fill="#adcf36"/>
      </g>
      <g id="Vit_E" data-name="Vit E">
        <path id="Path_103" data-name="Path 103" d="M874.822,8372.038l9.886,24.84-2.285-.457,9.388-24.383h4.694l-13.251,31.4-13.209-31.4Z" fill="#adcf36"/>
        <path id="Path_104" data-name="Path 104" d="M900.7,8378.643a1.946,1.946,0,0,1,.727-1.536,2.4,2.4,0,0,1,1.6-.623,2.251,2.251,0,0,1,1.558.623,2.09,2.09,0,0,1,0,3.095,2.3,2.3,0,0,1-1.558.6,2.4,2.4,0,0,1-1.6-.623A1.947,1.947,0,0,1,900.7,8378.643Zm.291,6.231h3.863v17.2h-3.863Z" fill="#adcf36"/>
        <path id="Path_105" data-name="Path 105" d="M913.2,8377.313h3.863v7.644H921.8v3.032h-4.736v14.081H913.2v-14.081h-3.156v-3.032H913.2Z" fill="#adcf36"/>
        <path id="Path_106" data-name="Path 106" d="M933.6,8402.486a9.272,9.272,0,0,1-4.382-1.039,7.6,7.6,0,0,1-3.115-3.054,10.994,10.994,0,0,1,.062-9.886,8.363,8.363,0,0,1,3.219-3.219,8.939,8.939,0,0,1,4.424-1.122,7.221,7.221,0,0,1,4.071,1.1,7.943,7.943,0,0,1,2.534,2.6l-.249.664.373-3.655h3.573v17.2h-3.864v-4.486l.416,1a4.112,4.112,0,0,1-.727,1.059,8.505,8.505,0,0,1-1.495,1.31,8.9,8.9,0,0,1-2.14,1.1A7.882,7.882,0,0,1,933.6,8402.486Zm1.039-3.2a6.14,6.14,0,0,0,2.617-.54,5.214,5.214,0,0,0,1.931-1.516,5.614,5.614,0,0,0,1.059-2.348v-3.364a5.287,5.287,0,0,0-1.162-2.181,5.815,5.815,0,0,0-1.994-1.454,6.261,6.261,0,0,0-2.576-.519,5.524,5.524,0,0,0-2.824.747,5.582,5.582,0,0,0-2.057,2.077,6.122,6.122,0,0,0-.768,3.115,5.971,5.971,0,0,0,.789,3.032,5.866,5.866,0,0,0,2.119,2.16A5.513,5.513,0,0,0,934.636,8399.287Z" fill="#adcf36"/>
        <path id="Path_107" data-name="Path 107" d="M954.242,8384.874l.332,3.862-.166-.332a7.314,7.314,0,0,1,6.771-4.2,6.8,6.8,0,0,1,2.575.457,4.744,4.744,0,0,1,1.849,1.308,4.243,4.243,0,0,1,.934,2.1l-.207.124a7.4,7.4,0,0,1,2.762-2.929,7.111,7.111,0,0,1,3.718-1.059,5.508,5.508,0,0,1,4.008,1.433,5.1,5.1,0,0,1,1.516,3.719v12.71h-3.863v-11.34a4.133,4.133,0,0,0-.644-2.223,2.529,2.529,0,0,0-2.1-.976,4.271,4.271,0,0,0-2.68.914,6.192,6.192,0,0,0-1.848,2.346,7.748,7.748,0,0,0-.707,3.095v8.184h-3.862v-11.34a3.924,3.924,0,0,0-.686-2.223,2.653,2.653,0,0,0-2.139-.976,4.243,4.243,0,0,0-2.7.914,6.062,6.062,0,0,0-1.807,2.367,7.6,7.6,0,0,0-.644,3.114v8.143h-3.863v-17.2Z" fill="#adcf36"/>
        <path id="Path_108" data-name="Path 108" d="M984.772,8378.643a1.946,1.946,0,0,1,.727-1.536,2.4,2.4,0,0,1,1.6-.623,2.249,2.249,0,0,1,1.557.623,2.09,2.09,0,0,1,0,3.095,2.3,2.3,0,0,1-1.557.6,2.4,2.4,0,0,1-1.6-.623A1.947,1.947,0,0,1,984.772,8378.643Zm.291,6.231h3.863v17.2h-3.863Z" fill="#adcf36"/>
        <path id="Path_109" data-name="Path 109" d="M999.061,8384.874l.333,4.2-.167-.665a6.624,6.624,0,0,1,2.7-3.054,8.123,8.123,0,0,1,4.32-1.142,5.687,5.687,0,0,1,4.008,1.433,4.951,4.951,0,0,1,1.6,3.719v12.71h-3.9v-11.34a3.575,3.575,0,0,0-.81-2.306,2.984,2.984,0,0,0-2.388-.893,4.64,4.64,0,0,0-2.7.831,5.6,5.6,0,0,0-1.89,2.284,7.812,7.812,0,0,0-.685,3.364v8.059h-3.864v-17.2Z" fill="#adcf36"/>
        <path id="Path_110" data-name="Path 110" d="M1029.9,8372.038h19.523v3.863h-15.494v9.138h13.832v3.864h-13.832v9.3H1050v3.863h-20.1Z" fill="#adcf36"/>
      </g>
      <g id="Enriched_With" data-name="Enriched With">
        <path id="Path_111" data-name="Path 111" d="M911.807,8354.3H919.3v.8h-6.657v4.825h5.99v.8h-5.99v4.911h6.9v.8h-7.734Z" fill="#adcf36"/>
        <path id="Path_112" data-name="Path 112" d="M923.033,8359.761l.085,2.106-.1-.411a2.525,2.525,0,0,1,1.1-1.378,3.356,3.356,0,0,1,1.8-.5,2.112,2.112,0,0,1,1.523.556,1.965,1.965,0,0,1,.6,1.445v4.878h-.821V8361.8a1.6,1.6,0,0,0-.411-1.079,1.535,1.535,0,0,0-1.146-.444,2.529,2.529,0,0,0-2.182,1.231,2.567,2.567,0,0,0-.351,1.353v3.594h-.8v-6.692Z" fill="#adcf36"/>
        <path id="Path_113" data-name="Path 113" d="M931.793,8359.761l.086,2.055-.1-.257a2.65,2.65,0,0,1,.7-1.061,3.46,3.46,0,0,1,1.069-.684,3.016,3.016,0,0,1,1.138-.24l-.034.787a2.848,2.848,0,0,0-1.4.342,2.7,2.7,0,0,0-.993.915,2.351,2.351,0,0,0-.367,1.292v3.543h-.8v-6.692Z" fill="#adcf36"/>
        <path id="Path_114" data-name="Path 114" d="M936.773,8357.3a.508.508,0,0,1,.188-.4.612.612,0,0,1,.411-.163.569.569,0,0,1,.41.163.53.53,0,0,1,.172.4.553.553,0,0,1-.172.419.569.569,0,0,1-.41.163.6.6,0,0,1-.411-.172A.536.536,0,0,1,936.773,8357.3Zm.171,2.463h.8v6.692h-.8Z" fill="#adcf36"/>
        <path id="Path_115" data-name="Path 115" d="M945.962,8365.8a3.481,3.481,0,0,1-1.044.583,3.842,3.842,0,0,1-3.046-.249,3.341,3.341,0,0,1-1.266-1.241,3.474,3.474,0,0,1-.462-1.8,3.381,3.381,0,0,1,.479-1.8,3.512,3.512,0,0,1,1.274-1.241,3.457,3.457,0,0,1,1.738-.453,3.937,3.937,0,0,1,1.3.207,3.191,3.191,0,0,1,1.044.58l-.428.549a3.183,3.183,0,0,0-.838-.48,2.8,2.8,0,0,0-1.027-.187,2.616,2.616,0,0,0-1.378.377,2.79,2.79,0,0,0-.992,1.017,2.83,2.83,0,0,0-.368,1.43,2.785,2.785,0,0,0,.368,1.411,2.743,2.743,0,0,0,1.009,1.02,2.9,2.9,0,0,0,2.388.213,3,3,0,0,0,.8-.437Z" fill="#adcf36"/>
        <path id="Path_116" data-name="Path 116" d="M948.2,8366.453v-13h.788v8.093l-.052-.29a2.959,2.959,0,0,1,1.1-1.19,3.193,3.193,0,0,1,1.754-.486,2.112,2.112,0,0,1,1.523.556,1.964,1.964,0,0,1,.6,1.445v4.878H953.1V8361.8a1.6,1.6,0,0,0-.41-1.079,1.538,1.538,0,0,0-1.147-.444,2.418,2.418,0,0,0-1.249.342,2.628,2.628,0,0,0-.933.924,2.51,2.51,0,0,0-.35,1.318v3.594Z" fill="#adcf36"/>
        <path id="Path_117" data-name="Path 117" d="M959.873,8366.589a3.646,3.646,0,0,1-1.848-.462,3.324,3.324,0,0,1-1.258-1.257,3.553,3.553,0,0,1-.453-1.788,3.415,3.415,0,0,1,.479-1.78,3.615,3.615,0,0,1,1.292-1.284,3.5,3.5,0,0,1,1.806-.479,2.97,2.97,0,0,1,2.01.7,3.942,3.942,0,0,1,1.172,1.831l-5.852,2.259-.24-.582,5.356-2.088-.171.239a3.129,3.129,0,0,0-.881-1.181,2.172,2.172,0,0,0-1.446-.5,2.61,2.61,0,0,0-1.386.377,2.83,2.83,0,0,0-.984,1.011,2.8,2.8,0,0,0-.368,1.437,2.906,2.906,0,0,0,.351,1.4,2.741,2.741,0,0,0,.984,1.044,2.693,2.693,0,0,0,1.455.394,2.774,2.774,0,0,0,1.052-.205,3.464,3.464,0,0,0,.9-.53l.411.582a4.2,4.2,0,0,1-1.1.615A3.528,3.528,0,0,1,959.873,8366.589Z" fill="#adcf36"/>
        <path id="Path_118" data-name="Path 118" d="M968.035,8366.589a3.3,3.3,0,0,1-2.934-1.711,3.922,3.922,0,0,1,.008-3.679,3.185,3.185,0,0,1,1.258-1.215,3.644,3.644,0,0,1,1.754-.429,3.6,3.6,0,0,1,1.822.5,3.037,3.037,0,0,1,1.259,1.3l-.138.378v-8.282h.8v13h-.821V8364.4l.17.376a3.318,3.318,0,0,1-1.283,1.308A3.668,3.668,0,0,1,968.035,8366.589Zm.206-.7a2.857,2.857,0,0,0,1.386-.334,2.675,2.675,0,0,0,1.421-2.2v-.855a2.584,2.584,0,0,0-.532-1.164,3.027,3.027,0,0,0-.992-.812,2.763,2.763,0,0,0-1.283-.3,2.8,2.8,0,0,0-1.4.36,2.726,2.726,0,0,0-1.01.992,2.83,2.83,0,0,0-.376,1.472,2.769,2.769,0,0,0,.376,1.429,2.875,2.875,0,0,0,1.019,1.027A2.656,2.656,0,0,0,968.241,8365.888Z" fill="#adcf36"/>
        <path id="Path_119" data-name="Path 119" d="M979.483,8354.337h.958l4.022,10.986-.189-.052,2.533-6.845.393,1.079-2.926,7.511Zm5.6,0h.838l4.175,10.986-.256-.068,4.072-10.918h.89L989.921,8367Z" fill="#adcf36"/>
        <path id="Path_120" data-name="Path 120" d="M996.51,8357.3a.505.505,0,0,1,.188-.4.609.609,0,0,1,.41-.163.572.572,0,0,1,.411.163.529.529,0,0,1,.171.4.552.552,0,0,1-.171.419.572.572,0,0,1-.411.163.593.593,0,0,1-.41-.172A.533.533,0,0,1,996.51,8357.3Zm.17,2.463h.8v6.692h-.8Z" fill="#adcf36"/>
        <path id="Path_121" data-name="Path 121" d="M1001.2,8356.819h.821v3.027h2.071v.651h-2.071v5.955h-.821V8360.5h-1.42v-.651h1.42Z" fill="#adcf36"/>
        <path id="Path_122" data-name="Path 122" d="M1006.091,8366.453v-13h.788v8.093l-.052-.29a2.966,2.966,0,0,1,1.1-1.19,3.193,3.193,0,0,1,1.754-.486,2.112,2.112,0,0,1,1.523.556,1.965,1.965,0,0,1,.6,1.445v4.878h-.821V8361.8a1.6,1.6,0,0,0-.411-1.079,1.535,1.535,0,0,0-1.146-.444,2.419,2.419,0,0,0-1.25.342,2.633,2.633,0,0,0-.932.924,2.5,2.5,0,0,0-.351,1.318v3.594Z" fill="#adcf36"/>
      </g>
    </g>
  </g>
</svg>
