<svg xmlns="http://www.w3.org/2000/svg" xmlns:xlink="http://www.w3.org/1999/xlink" width="235.5" height="57.429" viewBox="0 0 235.5 57.429">
  <defs>
    <clipPath id="clip-path">
      <rect id="Rectangle_5654" data-name="Rectangle 5654" width="235.5" height="57.429" fill="#fff"/>
    </clipPath>
  </defs>
  <g id="Group_4149" data-name="Group 4149" transform="translate(0 0)">
    <g id="Group_4148" data-name="Group 4148" transform="translate(0 0)" clip-path="url(#clip-path)">
      <path id="Path_64432" data-name="Path 64432" d="M0,57.43v-.964A4.8,4.8,0,0,0,3.455,54.9a4.8,4.8,0,0,0,1.566-3.454V5.984A4.8,4.8,0,0,0,3.455,2.531,4.8,4.8,0,0,0,0,.964V0H23.655a20.646,20.646,0,0,1,7.309,1.266A12.3,12.3,0,0,1,36.486,5.3a11.469,11.469,0,0,1,2.149,7.229,10.624,10.624,0,0,1-3.273,7.008,24.338,24.338,0,0,1-7.009,4.619,85.135,85.135,0,0,1-7.991,3.112,18.045,18.045,0,0,1-1.767.6,13.95,13.95,0,0,0-3.554,1.707,5.359,5.359,0,0,0-2.349,3.835V51.446A4.769,4.769,0,0,0,14.277,54.9a4.823,4.823,0,0,0,3.434,1.566v.964ZM15.643,28.073a38.3,38.3,0,0,1,4-1.807,38.359,38.359,0,0,0,5.382-2.611,12.4,12.4,0,0,0,4.257-4.116,12.618,12.618,0,0,0,1.646-6.848v-.4a11.313,11.313,0,0,0-2.008-6.345,11.683,11.683,0,0,0-4.5-3.775A12.215,12.215,0,0,0,19.2.924a8.063,8.063,0,0,0-4.658,1.265,4.294,4.294,0,0,0-1.847,3.795V30.442a9.207,9.207,0,0,1,2.952-2.369" transform="translate(0 0)" fill="#fff"/>
      <path id="Path_64433" data-name="Path 64433" d="M94,69.854a5.388,5.388,0,0,1-5.02-5.02V62.826a7.646,7.646,0,0,1-2.45,4.116,10.385,10.385,0,0,1-4.156,2.289,16.074,16.074,0,0,1-4.237.622,13.594,13.594,0,0,1-6.867-1.768,10.578,10.578,0,0,1-4.036-3.955,12.555,12.555,0,0,1-1.546-6.526V40.176a5.387,5.387,0,0,0-5.02-5.02v-.964a24.743,24.743,0,0,0,9.2-1.767,21.936,21.936,0,0,0,2.57-1.125H73.4V58.087a11.37,11.37,0,0,0,1.586,6.405A5.822,5.822,0,0,0,78.12,67.1a11.277,11.277,0,0,0,2.429.381,7.566,7.566,0,0,0,2.933-.6,8.822,8.822,0,0,0,3.935-3.152,9.131,9.131,0,0,0,1.606-5.482V40.176A5.386,5.386,0,0,0,84,35.156v-.964a22.977,22.977,0,0,0,5.161-.542,28.924,28.924,0,0,0,4.036-1.2A24.077,24.077,0,0,0,95.77,31.3h.964V63.87a5.386,5.386,0,0,0,5.02,5.02v.964Z" transform="translate(-24.084 -12.425)" fill="#fff"/>
      <path id="Path_64434" data-name="Path 64434" d="M132.86,60.47v-.964a5.385,5.385,0,0,0,5.02-5.02V30.791a4.8,4.8,0,0,0-1.565-3.454,4.8,4.8,0,0,0-3.454-1.566v-.964a24.236,24.236,0,0,0,9.2-1.727,26.364,26.364,0,0,0,2.57-1.165h.4a2.289,2.289,0,0,0,.6-.04v7.068A32.772,32.772,0,0,1,152.7,14.687a23.423,23.423,0,0,1,6.065-5.081,14.227,14.227,0,0,1,7.229-1.947,4.8,4.8,0,0,1,4.82,4.819,4.8,4.8,0,0,1-4.82,4.819,5.038,5.038,0,0,1-1.847-.361,9.647,9.647,0,0,0-3.494-.683,9.98,9.98,0,0,0-5.1,1.486,20.619,20.619,0,0,0-7.108,7.068,16.581,16.581,0,0,0-2.852,8.715V54.486a5.386,5.386,0,0,0,5.02,5.02v.964Zm24.3,0v-.964a5.393,5.393,0,0,0,4.98-5.02V30.751A4.8,4.8,0,0,0,160.57,27.3a4.759,4.759,0,0,0-3.413-1.566v-.964a23.571,23.571,0,0,0,5.12-.522,26.419,26.419,0,0,0,4.056-1.2,21.8,21.8,0,0,0,2.55-1.164h.964v32.61a5.387,5.387,0,0,0,5.02,5.02v.964Z" transform="translate(-52.74 -3.041)" fill="#fff"/>
      <path id="Path_64435" data-name="Path 64435" d="M211.462,62.121a8.787,8.787,0,0,1-3.273-3.153,9.142,9.142,0,0,1-1.245-4.879V27.663h-2.892V26.7h2.892V20.233l7.71-5.582V26.7h2.892v.963h-2.892V55.213q0,3.615,1.487,5.181a4.2,4.2,0,0,0,2.972,1.566,6.284,6.284,0,0,0,2.77-.763,9.817,9.817,0,0,1-5.943,2.048,9.071,9.071,0,0,1-4.478-1.125" transform="translate(-81 -5.816)" fill="#fff"/>
      <path id="Path_64436" data-name="Path 64436" d="M264.157,69.854a5.388,5.388,0,0,1-5.02-5.02V62.826a7.646,7.646,0,0,1-2.45,4.116,10.386,10.386,0,0,1-4.156,2.289,16.074,16.074,0,0,1-4.237.622,13.594,13.594,0,0,1-6.867-1.768,10.578,10.578,0,0,1-4.036-3.955,12.555,12.555,0,0,1-1.546-6.526V40.176a5.387,5.387,0,0,0-5.02-5.02v-.964a24.743,24.743,0,0,0,9.2-1.767,21.936,21.936,0,0,0,2.57-1.125h.964V58.087a11.37,11.37,0,0,0,1.586,6.405,5.822,5.822,0,0,0,3.133,2.611,11.277,11.277,0,0,0,2.429.381,7.566,7.566,0,0,0,2.933-.6,8.822,8.822,0,0,0,3.935-3.152,9.131,9.131,0,0,0,1.606-5.482V40.176a5.386,5.386,0,0,0-5.02-5.02v-.964a22.978,22.978,0,0,0,5.161-.542,28.925,28.925,0,0,0,4.036-1.2,24.076,24.076,0,0,0,2.57-1.145h.964V63.87a5.386,5.386,0,0,0,5.02,5.02v.964Z" transform="translate(-91.628 -12.425)" fill="#fff"/>
      <path id="Path_64437" data-name="Path 64437" d="M327.934,69.828a5.116,5.116,0,0,1-3.695-1.526,4.967,4.967,0,0,1-1.566-3.695V60.913q-5.021,8.594-12.45,8.876a8.664,8.664,0,0,1-7.871-4.981,11.823,11.823,0,0,1-1-4.538,8.2,8.2,0,0,1,.643-3.212,16.549,16.549,0,0,1,4.8-6.145,64.413,64.413,0,0,1,6.927-4.98,48.165,48.165,0,0,0,5.663-4.136q2.207-1.928,2.208-3.775V37.7q-1.646-5.461-6.827-5.462a6.4,6.4,0,0,0-4.3,1.948,6.3,6.3,0,0,0-1.848,4.679q0,3.011,3.253,6.425-3.132,2.048-6.024,4.377a13.744,13.744,0,0,1-2.57-7.751,9.986,9.986,0,0,1,3.252-7.59q3.093-2.892,9.076-3.092,6.867.041,10.8,4.2a14.991,14.991,0,0,1,3.935,10.743V63.845a5.393,5.393,0,0,0,4.98,5.02v.964ZM319.3,63.282a13.321,13.321,0,0,0,3.374-3.735V46.334a32.488,32.488,0,0,0-.643-6.948,15.857,15.857,0,0,1-2.429,3.876q-1.588,1.908-3.434,3.795t-3.454,3.815q-3.093,4.056-3.092,7.47l.04.8q.682,5.662,5.382,5.662a7.8,7.8,0,0,0,4.257-1.526" transform="translate(-119.623 -12.399)" fill="#fff"/>
      <path id="Path_64438" data-name="Path 64438" d="M361.086,57.429v-.964a5.385,5.385,0,0,0,5.02-5.02V8.835a4.758,4.758,0,0,0-1.565-3.413,4.8,4.8,0,0,0-3.454-1.567V2.892a22.943,22.943,0,0,0,5.161-.542,29.089,29.089,0,0,0,4.036-1.2A24.013,24.013,0,0,0,372.853,0h.964V51.445a5.386,5.386,0,0,0,5.02,5.02v.964Z" transform="translate(-143.337 0)" fill="#fff"/>
    </g>
  </g>
</svg>
