<svg id="Group_4285" data-name="Group 4285" xmlns="http://www.w3.org/2000/svg" xmlns:xlink="http://www.w3.org/1999/xlink" width="219.292" height="221.075" viewBox="0 0 219.292 221.075">
  <defs>
    <clipPath id="clip-path">
      <rect id="Rectangle_5696" data-name="Rectangle 5696" width="219.292" height="221.075" fill="none"/>
    </clipPath>
  </defs>
  <g id="Group_4284" data-name="Group 4284" transform="translate(0 0)" clip-path="url(#clip-path)">
    <path id="Path_64461" data-name="Path 64461" d="M219.283,112.483A109.418,109.418,0,0,1,110.812,221.075a111.073,111.073,0,0,1-41.718-7.88A109.638,109.638,0,0,1,33.38,189.915,112.266,112.266,0,0,1,9.1,154.617,110.209,110.209,0,0,1,7.883,69.844,110.784,110.784,0,0,1,110.812,0a106.353,106.353,0,0,1,78.465,34.018c19.919,21.3,30.342,50.123,30.006,78.465m-5.932,0-.686-10.038c-.479-3.312-1.111-6.6-1.647-9.9-.775-3.249-1.817-6.434-2.7-9.642-1.1-3.145-2.442-6.2-3.636-9.3a101.1,101.1,0,0,0-23.13-31.86,105.533,105.533,0,0,0-70.742-27.788A100.314,100.314,0,0,0,39.037,184.259,101.583,101.583,0,0,0,205.853,151.85a103.23,103.23,0,0,0,7.5-39.367" transform="translate(0.001 0)" fill="#fff"/>
    <path id="Path_64462" data-name="Path 64462" d="M55.523,14.528a73.4,73.4,0,0,1,25.42,23.426A79.422,79.422,0,0,1,93.792,70.646,81.422,81.422,0,0,1,94.4,88.387a81.058,81.058,0,0,1-3.366,17.325A72.854,72.854,0,0,1,73.4,135.58a4.384,4.384,0,0,1-6.8-5.455l.032-.046a90.316,90.316,0,0,0,11.875-27.822,81.107,81.107,0,0,0,2.086-14.791,73.313,73.313,0,0,0-.628-14.805,80,80,0,0,0-9.628-28.083A88.95,88.95,0,0,0,51.018,21.125l-.034-.029a4.016,4.016,0,0,1,4.54-6.569" transform="translate(92.728 26.26)" fill="#fff"/>
  </g>
</svg>
