<svg id="Group_4283" data-name="Group 4283" xmlns="http://www.w3.org/2000/svg" xmlns:xlink="http://www.w3.org/1999/xlink" width="888.271" height="580.569" viewBox="0 0 888.271 580.569">
  <defs>
    <clipPath id="clip-path">
      <rect id="Rectangle_5695" data-name="Rectangle 5695" width="888.271" height="580.569" fill="none"/>
    </clipPath>
  </defs>
  <g id="Group_4282" data-name="Group 4282" clip-path="url(#clip-path)">
    <path id="Path_64449" data-name="Path 64449" d="M95.127,241.237a38.978,38.978,0,0,1-66.22,27.581,39.429,39.429,0,0,1,27.583-67.636,37.768,37.768,0,0,1,27.943,12.113,40.487,40.487,0,0,1,10.694,27.943m-2.113,0a34.826,34.826,0,0,0-11.32-25.2,37.7,37.7,0,0,0-25.2-9.9A35.74,35.74,0,0,0,30.923,266.8a36.165,36.165,0,0,0,62.091-25.565" transform="translate(25.431 300.651)" fill="#fff"/>
    <path id="Path_64450" data-name="Path 64450" d="M39.454,207.1a26.263,26.263,0,0,1,9.042,8.351,27.767,27.767,0,0,1,3.6,24.126,26.211,26.211,0,0,1-6.273,10.641A1.562,1.562,0,0,1,43.4,248.28l.01-.017a31.644,31.644,0,0,0,4.241-9.905,29.144,29.144,0,0,0,.509-10.546,28.96,28.96,0,0,0-3.417-10.01,31.463,31.463,0,0,0-6.892-8.346l-.015-.01a1.431,1.431,0,0,1,1.619-2.34" transform="translate(55.803 309.245)" fill="#fff"/>
    <path id="Path_64451" data-name="Path 64451" d="M138.436,200.717A54.95,54.95,0,0,1,45.082,239.6a56.4,56.4,0,0,1-12.2-17.725A55.528,55.528,0,0,1,44.2,160.949a56.311,56.311,0,0,1,39.769-16.7,53.251,53.251,0,0,1,39.395,17.074,57.048,57.048,0,0,1,15.076,39.395m-2.978,0a49.26,49.26,0,0,0-4.353-19.526A51.125,51.125,0,0,0,119.5,165.184a53.144,53.144,0,0,0-35.533-13.959,50.363,50.363,0,0,0-50.323,49.492,50.439,50.439,0,0,0,14.281,36.042,51.01,51.01,0,0,0,83.768-16.274,51.808,51.808,0,0,0,3.767-19.768" transform="translate(42.318 215.568)" fill="#fff"/>
    <path id="Path_64452" data-name="Path 64452" d="M59.951,152.6c10.195,5.58,17.444,16.383,19.217,28.182s-2.033,24.3-10.24,32.607a2.2,2.2,0,0,1-3.41-2.746l.01-.017a44.914,44.914,0,0,0,5.964-13.971,40.525,40.525,0,0,0,.733-14.862,42.318,42.318,0,0,0-14.538-25.88l-.02-.015a2.016,2.016,0,0,1,2.282-3.3" transform="translate(85.133 227.682)" fill="#fff"/>
    <path id="Path_64453" data-name="Path 64453" d="M104.432,59.143a39.681,39.681,0,0,1-39.267,39.31,39.747,39.747,0,0,1-28.03-11.28,40.068,40.068,0,0,1,28.03-68.737,38.386,38.386,0,0,1,28.4,12.308,41.148,41.148,0,0,1,10.868,28.4m-2.148,0A35.375,35.375,0,0,0,90.78,33.53,38.312,38.312,0,0,0,65.165,23.465,36.309,36.309,0,0,0,28.888,59.143,36.369,36.369,0,0,0,39.183,85.125a36.822,36.822,0,0,0,52.328.362,37.289,37.289,0,0,0,10.773-26.344" transform="translate(37.439 27.551)" fill="#fff"/>
    <path id="Path_64454" data-name="Path 64454" d="M47.854,24.455a26.739,26.739,0,0,1,9.192,8.486A28.225,28.225,0,0,1,60.7,57.462a26.584,26.584,0,0,1-6.376,10.813A1.587,1.587,0,0,1,51.863,66.3l.012-.017a32.211,32.211,0,0,0,4.308-10.068,28.618,28.618,0,0,0-2.956-20.891,31.9,31.9,0,0,0-7-8.481l-.012-.012a1.453,1.453,0,0,1,1.644-2.377" transform="translate(68.304 36.284)" fill="#fff"/>
    <path id="Path_64455" data-name="Path 64455" d="M34.508,196.442a17.249,17.249,0,0,1-17.067,17.087A17.283,17.283,0,0,1,0,196.442a17.43,17.43,0,0,1,17.439-17.693A16.849,16.849,0,0,1,29.786,184.1a17.806,17.806,0,0,1,4.722,12.345m-.933,0a15.5,15.5,0,0,0-5-11.133,16.518,16.518,0,0,0-11.133-4.375A15.774,15.774,0,0,0,1.679,196.442a15.92,15.92,0,0,0,15.762,16.114,16.1,16.1,0,0,0,11.452-4.662,16.2,16.2,0,0,0,4.682-11.452" transform="translate(0 267.128)" fill="#fff"/>
    <path id="Path_64456" data-name="Path 64456" d="M9.913,181.364a12.283,12.283,0,0,1,6.019,8.83,12.22,12.22,0,0,1-3.205,10.217.692.692,0,0,1-.975,0,.7.7,0,0,1-.09-.868,13.3,13.3,0,0,0,2.1-9.035A13.157,13.157,0,0,0,9.2,182.4a.632.632,0,0,1-.077-.891.646.646,0,0,1,.786-.147" transform="translate(13.419 270.926)" fill="#fff"/>
    <path id="Path_64457" data-name="Path 64457" d="M47.057,17.694A17.249,17.249,0,0,1,29.99,34.781,17.283,17.283,0,0,1,12.552,17.694,17.426,17.426,0,0,1,29.99,0,16.839,16.839,0,0,1,42.333,5.349a17.8,17.8,0,0,1,4.724,12.345m-.933,0a15.5,15.5,0,0,0-5-11.133A16.518,16.518,0,0,0,29.99,2.186,15.774,15.774,0,0,0,14.228,17.694,15.92,15.92,0,0,0,29.99,33.808,15.955,15.955,0,0,0,46.124,17.694" transform="translate(18.754 0.001)" fill="#fff"/>
    <path id="Path_64458" data-name="Path 64458" d="M22.461,2.615a12.268,12.268,0,0,1,2.814,19.047.692.692,0,0,1-.975,0,.7.7,0,0,1-.09-.868,13.311,13.311,0,0,0,2.1-9.035,13.179,13.179,0,0,0-4.557-8.109.632.632,0,0,1-.077-.891.646.646,0,0,1,.786-.147" transform="translate(32.172 3.798)" fill="#fff"/>
    <path id="Path_64459" data-name="Path 64459" d="M402.9,185.4a39.054,39.054,0,0,1-78.1,0,39.443,39.443,0,0,1,39.467-40.056A37.768,37.768,0,0,1,392.2,157.462,40.488,40.488,0,0,1,402.9,185.4m-2.113,0a34.816,34.816,0,0,0-11.322-25.2,37.686,37.686,0,0,0-25.2-9.9,35.74,35.74,0,0,0-25.568,60.672A36.165,36.165,0,0,0,400.783,185.4" transform="translate(485.369 217.214)" fill="#fff"/>
    <path id="Path_64460" data-name="Path 64460" d="M347.222,151.273a26.24,26.24,0,0,1,9.042,8.351,27.767,27.767,0,0,1,3.6,24.126,26.212,26.212,0,0,1-6.273,10.641,1.562,1.562,0,0,1-2.422-1.943l.01-.017a31.644,31.644,0,0,0,4.241-9.905,28.183,28.183,0,0,0-2.909-20.557,31.509,31.509,0,0,0-6.892-8.346l-.012-.01a1.43,1.43,0,0,1,1.616-2.34" transform="translate(515.741 225.808)" fill="#fff"/>
  </g>
</svg>
