<svg xmlns="http://www.w3.org/2000/svg" width="95" height="95" viewBox="0 0 95 95">
  <g id="Group_4173" data-name="Group 4173" transform="translate(-0.118 0.266)">
    <circle id="Ellipse_114" data-name="Ellipse 114" cx="47.5" cy="47.5" r="47.5" transform="translate(0.118 -0.266)" fill="#25330a"/>
    <path id="svgexport-2" d="M11.372,16.493V8.872A7.622,7.622,0,0,1,22.8,2.271a7.622,7.622,0,0,1,11.433,6.6v7.622h1.905a5.716,5.716,0,0,1,5.716,5.716V46.98A7.621,7.621,0,0,1,34.237,54.6H11.372A7.621,7.621,0,0,1,3.75,46.98V22.21a5.716,5.716,0,0,1,5.716-5.716Zm3.811-7.622v7.622H22.8V8.872a3.811,3.811,0,1,0-7.622,0ZM34.237,50.791a3.811,3.811,0,0,0,3.811-3.811V22.21A1.906,1.906,0,0,0,36.142,20.3H30.426V46.98a3.811,3.811,0,0,0,3.811,3.811ZM26.615,20.3H9.466A1.905,1.905,0,0,0,7.561,22.21V46.98a3.811,3.811,0,0,0,3.811,3.811H27.636a7.583,7.583,0,0,1-1.021-3.811Zm0-11.433v7.622h3.811V8.872a3.811,3.811,0,0,0-4.764-3.693A7.563,7.563,0,0,1,26.615,8.872Z" transform="translate(24.365 19.466)" fill="#fff"/>
  </g>
</svg>
